<svg xmlns="http://www.w3.org/2000/svg" viewBox="0 0 32 32" fill="none">
  <!-- Ghost body -->
  <path d="M16 2C10.477 2 6 6.477 6 12v12c0 1.1.9 2 2 2s2-.9 2-2v-2c0-1.1.9-2 2-2s2 .9 2 2v2c0 1.1.9 2 2 2s2-.9 2-2v-2c0-1.1.9-2 2-2s2 .9 2 2v2c0 1.1.9 2 2 2s2-.9 2-2V12c0-5.523-4.477-10-10-10z" fill="#2563EB"/>
  <!-- Eyes -->
  <circle cx="12.5" cy="13" r="2" fill="white"/>
  <circle cx="19.5" cy="13" r="2" fill="white"/>
  <!-- Pen nib (ghostwriter) -->
  <path d="M22 4l4-2 2 4-4 2-2-4z" fill="#1E40AF"/>
  <path d="M22 4l-3 6 2 1 5-3" fill="#1E40AF" opacity="0.7"/>
</svg>
